<svg width="90" height="90" viewBox="0 0 90 90" fill="none" xmlns="http://www.w3.org/2000/svg">
<path d="M52.987 42.5252C54.4495 36.3752 49.087 31.0125 42.937 32.475C40.0495 33.1875 37.687 35.5501 36.9745 38.4376C35.512 44.5876 40.8745 49.9501 47.0245 48.4876C49.9495 47.7751 52.312 45.4127 52.987 42.5252Z" fill="#FF7300"/>
<path opacity="0.4" d="M22.5746 67.3874C21.8996 67.3874 21.1871 67.1251 20.6621 66.6376C13.3871 59.8876 9.22461 50.3624 9.22461 40.4624C9.22461 20.7374 25.2746 4.6875 44.9996 4.6875C64.7246 4.6875 80.7746 20.7374 80.7746 40.4624C80.7746 50.4374 76.7621 59.6625 69.4871 66.525C68.3621 67.575 66.5621 67.5376 65.5121 66.4126C64.4621 65.2876 64.4996 63.4876 65.6246 62.4376C71.7746 56.6626 75.1496 48.9 75.1496 40.5C75.1496 23.8875 61.6121 10.35 44.9996 10.35C28.3871 10.35 14.8496 23.8875 14.8496 40.5C14.8496 48.975 18.2621 56.775 24.4871 62.55C25.6121 63.6 25.6871 65.4 24.6371 66.525C24.0746 67.0875 23.3246 67.3874 22.5746 67.3874Z" fill="#FF7300"/>
<path opacity="0.4" d="M60.0002 57.3751C59.3252 57.3751 58.6127 57.1125 58.0877 56.625C56.9627 55.575 56.8877 53.775 57.9752 52.65C61.0877 49.35 62.8127 45.0001 62.8127 40.5001C62.8127 30.6751 54.8252 22.7251 45.0377 22.7251C35.2502 22.7251 27.2627 30.7126 27.2627 40.5001C27.2627 45.0376 28.9877 49.35 32.1002 52.65C33.1502 53.775 33.1127 55.575 31.9877 56.625C30.8627 57.7125 29.0627 57.6376 28.0127 56.5126C23.9252 52.1626 21.6377 46.4626 21.6377 40.5001C21.6377 27.6001 32.1377 17.1001 45.0377 17.1001C57.9377 17.1001 68.4377 27.6001 68.4377 40.5001C68.4377 46.4626 66.1877 52.1626 62.0627 56.5126C61.5002 57.0751 60.7502 57.3751 60.0002 57.3751Z" fill="#FF7300"/>
<path d="M38.6247 62.4748L33.2247 69.1875C28.9497 74.55 32.7372 82.4624 39.5997 82.4624H50.3622C57.2247 82.4624 61.0497 74.5125 56.7372 69.1875L51.3372 62.4748C48.1122 58.3873 41.8872 58.3873 38.6247 62.4748Z" fill="#FF7300"/>
<path d="M38.6247 62.4748L33.2247 69.1875C28.9497 74.55 32.7372 82.4624 39.5997 82.4624H50.3622C57.2247 82.4624 61.0497 74.5125 56.7372 69.1875L51.3372 62.4748C48.1122 58.3873 41.8872 58.3873 38.6247 62.4748Z" fill="#FF7300"/>
</svg>
