<svg width="90" height="90" viewBox="0 0 90 90" fill="none" xmlns="http://www.w3.org/2000/svg">
<path opacity="0.4" d="M67.65 50.8125C66.075 52.35 65.175 54.5625 65.4 56.925C65.7375 60.975 69.45 63.9375 73.5 63.9375H80.625V68.4C80.625 76.1625 74.2875 82.5 66.525 82.5H23.475C15.7125 82.5 9.375 76.1625 9.375 68.4V43.1625C9.375 35.4 15.7125 29.0625 23.475 29.0625H66.525C74.2875 29.0625 80.625 35.4 80.625 43.1625V48.5625H73.05C70.95 48.5625 69.0375 49.3875 67.65 50.8125Z" fill="#FF7300"/>
<path d="M55.6875 14.8126V29.0625H23.475C15.7125 29.0625 9.375 35.4001 9.375 43.1626V29.4002C9.375 24.9377 12.1125 20.9625 16.275 19.3875L46.05 8.13749C50.7 6.41249 55.6875 9.8251 55.6875 14.8126Z" fill="#FF7300"/>
<path d="M84.6004 52.3873V60.1126C84.6004 62.1751 82.9504 63.8624 80.8504 63.9374H73.5004C69.4504 63.9374 65.7379 60.9749 65.4004 56.9249C65.1754 54.5624 66.0754 52.3499 67.6504 50.8124C69.0379 49.3874 70.9504 48.5625 73.0504 48.5625H80.8504C82.9504 48.6375 84.6004 50.3248 84.6004 52.3873Z" fill="#FF7300"/>
<path d="M52.5 47.8125H26.25C24.7125 47.8125 23.4375 46.5375 23.4375 45C23.4375 43.4625 24.7125 42.1875 26.25 42.1875H52.5C54.0375 42.1875 55.3125 43.4625 55.3125 45C55.3125 46.5375 54.0375 47.8125 52.5 47.8125Z" fill="#FF7300"/>
</svg>
