<svg width="90" height="90" viewBox="0 0 90 90" fill="none" xmlns="http://www.w3.org/2000/svg">
<path opacity="0.4" d="M32.5125 52.5H15C10.875 52.5 7.5 55.875 7.5 60V82.5H32.5125V52.5Z" fill="#FF7300"/>
<path d="M49.9871 37.5H39.9746C35.8496 37.5 32.4746 40.875 32.4746 45V82.5H57.4871V45C57.4871 40.875 54.1496 37.5 49.9871 37.5Z" fill="#FF7300"/>
<path opacity="0.4" d="M74.9998 63.75H57.4873V82.5H82.4998V71.25C82.4998 67.125 79.1248 63.75 74.9998 63.75Z" fill="#FF7300"/>
<path d="M56.2878 18.1874C57.4503 17.0249 57.9003 15.6374 57.5253 14.4374C57.1503 13.2374 55.9878 12.3749 54.3378 12.1124L50.7378 11.5124C50.5878 11.4749 50.2503 11.2498 50.1753 11.0998L48.1878 7.1248C46.6878 4.0873 43.2753 4.0873 41.7753 7.1248L39.7878 11.0998C39.7128 11.2498 39.3753 11.4749 39.2253 11.5124L35.6253 12.1124C33.9753 12.3749 32.8503 13.2374 32.4378 14.4374C32.0628 15.6374 32.5128 17.0249 33.6753 18.1874L36.4503 20.9999C36.5628 21.1124 36.7128 21.5624 36.6753 21.7124L35.8878 25.1623C35.2878 27.7123 36.2628 28.8748 36.9003 29.3623C37.5378 29.8123 38.9253 30.4123 41.2128 29.0623L44.5878 27.0748C44.7378 26.9623 45.2253 26.9623 45.3753 27.0748L48.7503 29.0623C49.8003 29.6998 50.6628 29.8873 51.3378 29.8873C52.1253 29.8873 52.6878 29.5873 53.0253 29.3623C53.6628 28.9123 54.6378 27.7498 54.0378 25.1623L53.2503 21.7124C53.2128 21.5249 53.3253 21.1124 53.4753 20.9999L56.2878 18.1874Z" fill="#FF7300"/>
</svg>
